<mxfile host="app.diagrams.net" modified="2023-06-13T03:04:10.418Z" agent="Mozilla/5.0 (Windows NT 10.0; Win64; x64) AppleWebKit/537.36 (KHTML, like Gecko) Chrome/113.0.0.0 Safari/537.36 OPR/99.0.0.0" version="21.3.8" etag="B0JB_RwDMHks9pDBYTkn" type="github">
  <diagram name="Page-1" id="L32FNgedO2kx4kAFE5z_">
    <mxGraphModel>
      <root>
        <mxCell id="0" />
        <mxCell id="1" parent="0" />
      </root>
    </mxGraphModel>
  </diagram>
</mxfile>
